<svg width="376" height="165" viewBox="0 0 376 165" fill="none" xmlns="http://www.w3.org/2000/svg">
<path d="M0 22.4388C0 15.6793 2.05121 10.418 6.15752 6.65886C10.2638 2.90358 15.9599 1.02594 23.2458 1.02594C30.5317 1.02594 38.0386 1.71118 45.7743 3.07392L43.4129 21.107C34.859 19.3997 29.2482 18.5441 26.5805 18.5441C23.9127 18.5441 22.5789 19.3649 22.5789 21.0025C22.5789 21.618 22.7844 22.0439 23.1954 22.2839C23.6064 22.5239 23.9127 22.7098 24.1183 22.8491C24.3238 22.9885 24.7154 23.155 25.297 23.3602C25.8787 23.5654 26.3556 23.7551 26.7356 23.9254C27.1117 24.0957 28.3409 24.6106 30.4309 25.4623C32.517 26.3179 34.0913 26.9993 35.1498 27.5103C36.2084 28.0214 37.6625 28.8615 39.5121 30.019C44.8475 33.5033 47.5153 38.6252 47.5153 45.3886C47.5153 52.1519 45.4951 57.3938 41.4586 61.1181C37.4221 64.8424 31.6213 66.7007 24.064 66.7007C16.5028 66.7007 9.09669 65.7793 1.84571 63.9327L3.28427 46.6158C12.4508 48.9386 18.6432 50.1001 21.8615 50.1001C23.9825 50.1001 25.0411 49.349 25.0411 47.8469C25.0411 47.1655 24.7852 46.6158 24.2734 46.2093C23.7615 45.8028 23.0054 45.3576 22.0166 44.8775C21.024 44.4013 19.5699 43.7664 17.6544 42.9805C15.7389 42.1946 14.1297 41.5133 12.8308 40.9326C11.5318 40.3518 9.9924 39.4459 8.21261 38.2187C2.73754 34.4634 0 29.2021 0 22.4388Z" fill="white"/>
<path d="M76.0966 31.4553C74.216 31.4553 72.9829 32.276 72.4013 33.9137C71.8197 35.5513 71.5288 38.0793 71.5288 41.4978C71.5288 44.9162 71.8003 47.3901 72.3509 48.927C72.8976 50.464 74.1966 51.2344 76.2517 51.2344C78.3068 51.2344 81.5523 50.7892 85.9998 49.9026L88.2565 64.1456C82.2347 65.8529 77.1745 66.7085 73.0682 66.7085C65.4721 66.7085 59.7411 64.525 55.8791 60.1503C52.0132 55.7794 50.0822 49.6665 50.0822 41.8075C50.0822 33.9524 52.0675 27.5839 56.0342 22.6981C60.0009 17.8163 65.7823 15.3734 73.3784 15.3734C78.9194 15.3734 84.1541 16.2948 89.0824 18.1415L86.9265 34.3318C81.5872 32.4154 77.9772 31.4553 76.0966 31.4553Z" fill="white"/>
<path d="M126.846 15.3695C136.148 15.3695 140.805 19.6746 140.805 28.2807V65.6825H119.149V33.9175C119.149 32.8258 118.583 32.2799 117.454 32.2799C116.326 32.2799 115.077 32.6206 113.709 33.3058V65.6864H92.3628V0H112.991V19.6746C117.163 16.8058 121.782 15.3695 126.846 15.3695Z" fill="white"/>
<path d="M146.136 40.9364C146.136 31.9547 148.137 25.4468 152.139 21.4167C156.14 17.3865 162.403 15.3695 170.922 15.3695C179.441 15.3695 185.648 17.3517 189.549 21.3122C193.45 25.2765 195.4 31.7805 195.4 40.8319C195.4 49.8833 193.5 56.4569 189.704 60.5568C185.908 64.6566 179.681 66.7046 171.026 66.7046C162.372 66.7046 156.059 64.6566 152.092 60.5568C148.122 56.4608 146.136 49.9181 146.136 40.9364ZM173.593 32.2257C173.217 31.0333 172.31 30.4332 170.875 30.4332C169.437 30.4332 168.529 31.0333 168.157 32.2257C167.781 33.422 167.591 35.9655 167.591 39.8601V42.3185C167.591 46.6893 167.777 49.5077 168.157 50.7737C168.533 52.0396 169.44 52.6707 170.875 52.6707C172.314 52.6707 173.217 52.0396 173.593 50.7737C173.969 49.5116 174.159 46.8636 174.159 42.8334V39.9647C174.155 36.0003 173.965 33.422 173.593 32.2257Z" fill="white"/>
<path d="M198.479 40.9364C198.479 31.9547 200.48 25.4468 204.482 21.4167C208.483 17.3865 214.745 15.3695 223.264 15.3695C231.783 15.3695 237.991 17.3517 241.892 21.3122C245.793 25.2765 247.743 31.7805 247.743 40.8319C247.743 49.8833 245.843 56.4569 242.047 60.5568C238.251 64.6566 232.024 66.7046 223.369 66.7046C214.714 66.7046 208.402 64.6566 204.435 60.5568C200.461 56.4608 198.479 49.9181 198.479 40.9364ZM225.932 32.2257C225.556 31.0333 224.649 30.4332 223.214 30.4332C221.775 30.4332 220.868 31.0333 220.496 32.2257C220.12 33.422 219.93 35.9655 219.93 39.8601V42.3185C219.93 46.6893 220.116 49.5077 220.496 50.7737C220.872 52.0396 221.779 52.6707 223.214 52.6707C224.653 52.6707 225.556 52.0396 225.932 50.7737C226.308 49.5116 226.498 46.8636 226.498 42.8334V39.9647C226.494 36.0003 226.308 33.422 225.932 32.2257Z" fill="white"/>
<path d="M252.563 52.9765V0H273.603V48.2611C273.603 50.1039 274.867 51.0292 277.399 51.0292L275.859 66.7085H267.445C257.522 66.7046 252.563 62.1286 252.563 52.9765Z" fill="white"/>
<path d="M72.4556 149.94H53.0601V119.611H52.5483L46.4916 149.94H28.5309L22.5788 119.611H22.0631V149.94H2.87323L5.33546 86.3095H32.6333L37.4569 115.101H38.3798L43.0988 86.3095H70.0903L72.4556 149.94Z" fill="white"/>
<path d="M122.844 114.075L122.228 134.567C122.228 135.523 122.588 136.154 123.305 136.464C124.023 136.77 125.306 136.924 127.156 136.924L125.205 150.552C121.099 150.823 118.331 150.962 116.892 150.962C111.898 150.962 108.272 149.63 106.012 146.967H105.294C102.01 149.63 97.8883 150.962 92.9289 150.962C87.9695 150.962 84.2045 149.65 81.6414 147.017C79.0745 144.389 77.791 140.749 77.791 136.104C77.791 130.366 79.722 126.371 83.5879 124.114C87.4538 121.861 93.5958 120.424 102.01 119.809V117.966C102.01 116.735 101.359 116.123 100.06 116.123C96.5699 116.123 90.583 117.184 82.099 119.302L78.9155 103.111C88.6985 100.789 97.1128 99.6272 104.162 99.6272C111.208 99.6272 116.082 100.789 118.788 103.111C121.495 105.434 122.844 109.089 122.844 114.075ZM99.6525 137.745C101.638 137.745 102.63 136.719 102.63 134.671V130.777C99.0709 131.257 97.295 132.619 97.295 134.876C97.2911 136.789 98.0783 137.745 99.6525 137.745Z" fill="white"/>
<path d="M164.718 99.6272C174.295 99.6272 179.084 104.273 179.084 113.564V149.94H157.428V118.175C157.428 117.083 156.862 116.538 155.733 116.538C154.605 116.538 153.356 116.878 151.988 117.563V149.944H130.642V100.858H150.037L150.654 104.033C154.966 101.098 159.653 99.6272 164.718 99.6272Z" fill="white"/>
<path d="M228.654 114.075L228.038 134.567C228.038 135.523 228.398 136.154 229.116 136.464C229.833 136.77 231.116 136.924 232.966 136.924L231.016 150.552C226.909 150.823 224.141 150.962 222.702 150.962C217.708 150.962 214.082 149.63 211.822 146.967H211.104C207.82 149.63 203.698 150.962 198.739 150.962C193.78 150.962 190.015 149.65 187.452 147.017C184.885 144.389 183.601 140.749 183.601 136.104C183.601 130.366 185.532 126.371 189.398 124.114C193.264 121.861 199.406 120.424 207.82 119.809V117.966C207.82 116.735 207.169 116.123 205.87 116.123C202.38 116.123 196.393 117.184 187.909 119.302L184.726 103.111C194.509 100.789 202.923 99.6272 209.972 99.6272C217.018 99.6272 221.892 100.789 224.598 103.111C227.301 105.434 228.654 109.089 228.654 114.075ZM205.459 137.745C207.444 137.745 208.437 136.719 208.437 134.671V130.777C204.877 131.257 203.101 132.619 203.101 134.876C203.101 136.789 203.884 137.745 205.459 137.745Z" fill="white"/>
<path d="M258.108 99.6272H286.022V112.128H278.426V112.538C280.547 114.176 281.606 116.603 281.606 119.813C281.606 130.537 274.696 135.899 260.876 135.899H254.413C253.866 135.899 253.591 136.204 253.591 136.82C253.591 137.435 253.862 137.741 254.413 137.741H270.729C279.485 137.741 283.866 141.295 283.866 148.399C283.866 159.464 275.212 165 257.902 165C250.923 165 245.518 164.214 241.687 162.642C237.856 161.071 235.94 158.237 235.94 154.137C235.94 151.884 237.138 150.207 239.531 149.116V148.705C236.382 147.064 234.812 144.334 234.812 140.509C234.812 136.684 237.41 133.711 242.613 131.594C237.825 128.179 235.428 123.448 235.428 117.401C235.428 111.354 237.414 106.882 241.38 103.979C245.347 101.079 250.923 99.6272 258.108 99.6272ZM253.591 152.91H265.289C265.906 152.91 266.212 152.67 266.212 152.193V151.578C266.212 151.098 265.906 150.862 265.289 150.862H253.591C253.11 150.862 252.873 151.102 252.873 151.578V152.193C252.873 152.67 253.114 152.91 253.591 152.91ZM259.031 115.306C257.251 115.306 256.363 117.014 256.363 120.428C256.363 123.847 257.321 125.55 259.236 125.55C261.016 125.55 261.904 123.878 261.904 120.529C261.904 118.686 261.698 117.351 261.287 116.534C260.88 115.717 260.124 115.306 259.031 115.306Z" fill="white"/>
<path d="M287.562 125.244C287.562 117.114 289.698 110.816 293.975 106.34C298.252 101.869 304.545 99.6272 312.859 99.6272C321.172 99.6272 327.054 101.334 330.509 104.749C333.964 108.168 335.693 113.049 335.693 119.402C335.693 121.93 335.418 125.755 334.871 130.877H309.113C309.384 134.567 311.645 136.41 315.887 136.41C317.872 136.41 323.072 135.693 331.486 134.257L333.231 148.09C325.976 150.002 319.206 150.958 312.909 150.958C304.7 150.958 298.423 148.705 294.076 144.195C289.733 139.693 287.562 133.374 287.562 125.244ZM312.498 116.123C311.059 116.123 310.067 116.569 309.52 117.455C308.973 118.342 308.698 119.708 308.698 121.555H316.089V119.913C316.093 117.389 314.894 116.123 312.498 116.123Z" fill="white"/>
<path d="M361.863 122.476V149.936H340.723V100.858H358.99L359.606 104.137H360.017C361.657 102.635 363.542 101.594 365.663 101.013C367.784 100.432 370.898 100.142 375.004 100.142L374.387 117.153H367.408C365.357 117.153 363.918 117.529 363.096 118.28C362.274 119.031 361.863 120.428 361.863 122.476Z" fill="white"/>
</svg>
